<mxfile host="app.diagrams.net" modified="2020-11-08T21:46:39.102Z" agent="5.0 (Windows NT 10.0; Win64; x64) AppleWebKit/537.36 (KHTML, like Gecko) Chrome/86.0.4240.183 Safari/537.36" etag="VkpDc-v2aRukjJdxcpI_" version="13.9.2" type="github">
  <diagram id="h0yh4uh9Ou2qqzZrw4VW" name="Page-1">
    <mxGraphModel dx="1038" dy="548" grid="1" gridSize="10" guides="1" tooltips="1" connect="1" arrows="1" fold="1" page="1" pageScale="1" pageWidth="850" pageHeight="1100" math="0" shadow="0">
      <root>
        <mxCell id="0" />
        <mxCell id="1" parent="0" />
        <mxCell id="fXs1r2CifXFu1rM4M8Fj-4" value="" style="edgeStyle=orthogonalEdgeStyle;rounded=0;orthogonalLoop=1;jettySize=auto;html=1;" parent="1" source="fXs1r2CifXFu1rM4M8Fj-1" target="fXs1r2CifXFu1rM4M8Fj-2" edge="1">
          <mxGeometry relative="1" as="geometry" />
        </mxCell>
        <mxCell id="fXs1r2CifXFu1rM4M8Fj-1" value="" style="ellipse;whiteSpace=wrap;html=1;aspect=fixed;fillColor=#000000;" parent="1" vertex="1">
          <mxGeometry x="220" y="40" width="40" height="40" as="geometry" />
        </mxCell>
        <mxCell id="fXs1r2CifXFu1rM4M8Fj-5" value="" style="edgeStyle=orthogonalEdgeStyle;rounded=0;orthogonalLoop=1;jettySize=auto;html=1;" parent="1" source="fXs1r2CifXFu1rM4M8Fj-2" target="fXs1r2CifXFu1rM4M8Fj-3" edge="1">
          <mxGeometry relative="1" as="geometry" />
        </mxCell>
        <mxCell id="fXs1r2CifXFu1rM4M8Fj-2" value="Place order" style="rounded=1;whiteSpace=wrap;html=1;fillColor=#FFFFFF;" parent="1" vertex="1">
          <mxGeometry x="140" y="130" width="200" height="30" as="geometry" />
        </mxCell>
        <mxCell id="fXs1r2CifXFu1rM4M8Fj-21" value="No" style="edgeStyle=orthogonalEdgeStyle;rounded=0;orthogonalLoop=1;jettySize=auto;html=1;" parent="1" source="fXs1r2CifXFu1rM4M8Fj-3" target="fXs1r2CifXFu1rM4M8Fj-20" edge="1">
          <mxGeometry relative="1" as="geometry" />
        </mxCell>
        <mxCell id="fXs1r2CifXFu1rM4M8Fj-3" value="Valid?" style="rhombus;whiteSpace=wrap;html=1;fillColor=#FFFFFF;" parent="1" vertex="1">
          <mxGeometry x="210" y="200" width="60" height="60" as="geometry" />
        </mxCell>
        <mxCell id="fXs1r2CifXFu1rM4M8Fj-12" value="" style="edgeStyle=orthogonalEdgeStyle;rounded=0;orthogonalLoop=1;jettySize=auto;html=1;entryX=0.5;entryY=0;entryDx=0;entryDy=0;" parent="1" source="fXs1r2CifXFu1rM4M8Fj-8" edge="1" target="uzTjSLAnnRBoWLfr2uew-5">
          <mxGeometry relative="1" as="geometry">
            <mxPoint x="580" y="450" as="targetPoint" />
          </mxGeometry>
        </mxCell>
        <mxCell id="fXs1r2CifXFu1rM4M8Fj-15" value="" style="ellipse;html=1;shape=endState;fillColor=#000000;strokeColor=#ff0000;" parent="1" vertex="1">
          <mxGeometry x="355" y="520" width="30" height="30" as="geometry" />
        </mxCell>
        <mxCell id="fXs1r2CifXFu1rM4M8Fj-23" style="edgeStyle=orthogonalEdgeStyle;rounded=0;orthogonalLoop=1;jettySize=auto;html=1;entryX=0;entryY=0.5;entryDx=0;entryDy=0;exitX=0.5;exitY=1;exitDx=0;exitDy=0;" parent="1" source="fXs1r2CifXFu1rM4M8Fj-20" target="fXs1r2CifXFu1rM4M8Fj-15" edge="1">
          <mxGeometry relative="1" as="geometry">
            <Array as="points">
              <mxPoint x="110" y="535" />
            </Array>
          </mxGeometry>
        </mxCell>
        <mxCell id="fXs1r2CifXFu1rM4M8Fj-20" value="Error" style="rounded=1;whiteSpace=wrap;html=1;fillColor=#FFFFFF;" parent="1" vertex="1">
          <mxGeometry x="60" y="295" width="100" height="30" as="geometry" />
        </mxCell>
        <mxCell id="i4_D4u_NBAQ-QaVN7W0C-3" style="edgeStyle=orthogonalEdgeStyle;rounded=0;orthogonalLoop=1;jettySize=auto;html=1;entryX=1;entryY=0.5;entryDx=0;entryDy=0;exitX=0.5;exitY=1;exitDx=0;exitDy=0;" parent="1" source="uzTjSLAnnRBoWLfr2uew-3" target="fXs1r2CifXFu1rM4M8Fj-15" edge="1">
          <mxGeometry relative="1" as="geometry">
            <mxPoint x="580" y="880" as="targetPoint" />
            <mxPoint x="580" y="860" as="sourcePoint" />
            <Array as="points" />
          </mxGeometry>
        </mxCell>
        <mxCell id="i4_D4u_NBAQ-QaVN7W0C-22" value="Yes" style="edgeStyle=orthogonalEdgeStyle;rounded=0;orthogonalLoop=1;jettySize=auto;html=1;entryX=0;entryY=0.5;entryDx=0;entryDy=0;endArrow=classic;endFill=1;exitX=1;exitY=0.5;exitDx=0;exitDy=0;" parent="1" source="fXs1r2CifXFu1rM4M8Fj-3" target="OsMlclKe9sGLii8gvVtk-4" edge="1">
          <mxGeometry relative="1" as="geometry">
            <mxPoint x="480" y="115" as="targetPoint" />
          </mxGeometry>
        </mxCell>
        <mxCell id="fXs1r2CifXFu1rM4M8Fj-8" value="Update cash balance" style="rounded=1;whiteSpace=wrap;html=1;fillColor=#FFFFFF;" parent="1" vertex="1">
          <mxGeometry x="480" y="280" width="200" height="30" as="geometry" />
        </mxCell>
        <mxCell id="uzTjSLAnnRBoWLfr2uew-3" value="Verify Margin Approvals" style="rounded=1;whiteSpace=wrap;html=1;fillColor=#FFFFFF;" parent="1" vertex="1">
          <mxGeometry x="480" y="475" width="200" height="30" as="geometry" />
        </mxCell>
        <mxCell id="OsMlclKe9sGLii8gvVtk-7" value="" style="edgeStyle=orthogonalEdgeStyle;rounded=0;orthogonalLoop=1;jettySize=auto;html=1;" edge="1" parent="1" source="uzTjSLAnnRBoWLfr2uew-5" target="OsMlclKe9sGLii8gvVtk-6">
          <mxGeometry relative="1" as="geometry" />
        </mxCell>
        <mxCell id="uzTjSLAnnRBoWLfr2uew-5" value="Update buying power" style="rounded=1;whiteSpace=wrap;html=1;fillColor=#FFFFFF;" parent="1" vertex="1">
          <mxGeometry x="480" y="350" width="200" height="30" as="geometry" />
        </mxCell>
        <mxCell id="OsMlclKe9sGLii8gvVtk-3" value="" style="edgeStyle=orthogonalEdgeStyle;rounded=0;orthogonalLoop=1;jettySize=auto;html=1;entryX=0.5;entryY=0;entryDx=0;entryDy=0;" edge="1" parent="1" source="OsMlclKe9sGLii8gvVtk-1" target="fXs1r2CifXFu1rM4M8Fj-8">
          <mxGeometry relative="1" as="geometry">
            <mxPoint x="580" y="280" as="targetPoint" />
          </mxGeometry>
        </mxCell>
        <mxCell id="OsMlclKe9sGLii8gvVtk-1" value="Submit request" style="rounded=1;whiteSpace=wrap;html=1;fillColor=#FFFFFF;" vertex="1" parent="1">
          <mxGeometry x="480" y="215" width="200" height="30" as="geometry" />
        </mxCell>
        <mxCell id="OsMlclKe9sGLii8gvVtk-5" value="Yes" style="edgeStyle=orthogonalEdgeStyle;rounded=0;orthogonalLoop=1;jettySize=auto;html=1;exitX=1;exitY=0.5;exitDx=0;exitDy=0;entryX=0;entryY=0.5;entryDx=0;entryDy=0;" edge="1" parent="1" source="OsMlclKe9sGLii8gvVtk-4" target="OsMlclKe9sGLii8gvVtk-1">
          <mxGeometry relative="1" as="geometry" />
        </mxCell>
        <mxCell id="OsMlclKe9sGLii8gvVtk-9" value="No" style="edgeStyle=orthogonalEdgeStyle;rounded=0;orthogonalLoop=1;jettySize=auto;html=1;entryX=0.5;entryY=0;entryDx=0;entryDy=0;" edge="1" parent="1" source="OsMlclKe9sGLii8gvVtk-4" target="fXs1r2CifXFu1rM4M8Fj-15">
          <mxGeometry relative="1" as="geometry" />
        </mxCell>
        <mxCell id="OsMlclKe9sGLii8gvVtk-4" value="&lt;span&gt;Confirm request?&lt;/span&gt;" style="rhombus;whiteSpace=wrap;html=1;" vertex="1" parent="1">
          <mxGeometry x="330" y="190" width="80" height="80" as="geometry" />
        </mxCell>
        <mxCell id="OsMlclKe9sGLii8gvVtk-8" value="" style="edgeStyle=orthogonalEdgeStyle;rounded=0;orthogonalLoop=1;jettySize=auto;html=1;" edge="1" parent="1" source="OsMlclKe9sGLii8gvVtk-6" target="uzTjSLAnnRBoWLfr2uew-3">
          <mxGeometry relative="1" as="geometry" />
        </mxCell>
        <mxCell id="OsMlclKe9sGLii8gvVtk-6" value="&#xa;&#xa;&lt;span style=&quot;color: rgb(0, 0, 0); font-family: helvetica; font-size: 12px; font-style: normal; font-weight: 400; letter-spacing: normal; text-align: center; text-indent: 0px; text-transform: none; word-spacing: 0px; background-color: rgb(248, 249, 250); display: inline; float: none;&quot;&gt;Update portfolio&lt;/span&gt;&#xa;&#xa;" style="rounded=1;whiteSpace=wrap;html=1;fillColor=#FFFFFF;" vertex="1" parent="1">
          <mxGeometry x="480" y="415" width="200" height="30" as="geometry" />
        </mxCell>
      </root>
    </mxGraphModel>
  </diagram>
</mxfile>
